<mxfile host="app.diagrams.net" modified="2024-05-03T09:44:51.539Z" agent="Mozilla/5.0 (Windows NT 10.0; Win64; x64) AppleWebKit/537.36 (KHTML, like Gecko) Chrome/123.0.0.0 Safari/537.36 Edg/123.0.0.0" etag="jgNd3nrsFNtx6q1PSekB" version="24.3.1" type="device" pages="4">
  <diagram name="FNO ISP" id="AAPcwxImeLiRLM_JlwGE">
    <mxGraphModel dx="3174" dy="1646" grid="1" gridSize="10" guides="1" tooltips="1" connect="1" arrows="1" fold="1" page="1" pageScale="1" pageWidth="850" pageHeight="1100" math="0" shadow="0">
      <root>
        <mxCell id="0" />
        <mxCell id="1" parent="0" />
        <mxCell id="TtpIAQskz8FtSrQkfgXx-1" value="&lt;b&gt;&lt;font style=&quot;font-size: 16px;&quot;&gt;FNO ISP Order Management&lt;/font&gt;&lt;/b&gt;&lt;div&gt;&lt;br&gt;&lt;/div&gt;&lt;div&gt;FNO-ISP Account onboarding and Order Management processes are already live in the MultiChoice production environment.&lt;/div&gt;&lt;div&gt;&lt;br&gt;&lt;/div&gt;&lt;div&gt;The system is currently integrated with ICX as billing system.&lt;/div&gt;&lt;div&gt;&lt;br&gt;&lt;/div&gt;&lt;div&gt;The processes covered in this section are:&lt;/div&gt;&lt;div&gt;&lt;br&gt;&lt;/div&gt;&lt;div&gt;1) Account Creation&lt;/div&gt;&lt;div&gt;2) Vlocity Order Provisioning for New Purchase&lt;/div&gt;&lt;div&gt;3) Vlocity Order Provisioning New Purchase - Showmax&lt;/div&gt;&lt;div&gt;4) Change Order Processes:&lt;/div&gt;&lt;div&gt;&lt;span style=&quot;white-space: pre;&quot;&gt;&#x9;&lt;/span&gt;a. Disconnection&lt;br&gt;&lt;/div&gt;&lt;div&gt;&lt;span style=&quot;white-space: pre;&quot;&gt;&#x9;&lt;/span&gt;b. Reconnection&lt;br&gt;&lt;/div&gt;&lt;div&gt;&lt;span style=&quot;white-space: pre;&quot;&gt;&#x9;&lt;/span&gt;c. Cancellation&lt;br&gt;&lt;/div&gt;&lt;div&gt;&lt;span style=&quot;white-space: pre;&quot;&gt;&#x9;&lt;/span&gt;d. Upgrade/Downgrade&lt;br&gt;&lt;/div&gt;" style="whiteSpace=wrap;html=1;align=left;" vertex="1" parent="1">
          <mxGeometry x="40" y="40" width="330" height="370" as="geometry" />
        </mxCell>
        <mxCell id="TtpIAQskz8FtSrQkfgXx-4" value="Partner" style="shape=umlLifeline;perimeter=lifelinePerimeter;container=1;collapsible=0;recursiveResize=0;rounded=0;shadow=0;strokeWidth=1;fontSize=14;fillColor=#9AC7BF;strokeColor=#9673a6;" vertex="1" parent="1">
          <mxGeometry x="190" y="720" width="100" height="200" as="geometry" />
        </mxCell>
        <mxCell id="TtpIAQskz8FtSrQkfgXx-5" value="" style="points=[];perimeter=orthogonalPerimeter;rounded=0;shadow=0;strokeWidth=1;fontSize=14;" vertex="1" parent="TtpIAQskz8FtSrQkfgXx-4">
          <mxGeometry x="45" y="70" width="10" height="37" as="geometry" />
        </mxCell>
        <mxCell id="TtpIAQskz8FtSrQkfgXx-6" value="WM" style="shape=umlLifeline;perimeter=lifelinePerimeter;container=1;collapsible=0;recursiveResize=0;rounded=0;shadow=0;strokeWidth=1;fontSize=14;fillColor=#FFF2CC;strokeColor=#d79b00;" vertex="1" parent="1">
          <mxGeometry x="320" y="720" width="110" height="203.67" as="geometry" />
        </mxCell>
        <mxCell id="TtpIAQskz8FtSrQkfgXx-7" value="" style="endArrow=classic;html=1;rounded=0;" edge="1" parent="TtpIAQskz8FtSrQkfgXx-6">
          <mxGeometry width="50" height="50" relative="1" as="geometry">
            <mxPoint x="60" y="70" as="sourcePoint" />
            <mxPoint x="173" y="70" as="targetPoint" />
            <Array as="points" />
          </mxGeometry>
        </mxCell>
        <mxCell id="TtpIAQskz8FtSrQkfgXx-8" value="" style="points=[];perimeter=orthogonalPerimeter;rounded=0;shadow=0;strokeWidth=1;fontSize=14;" vertex="1" parent="TtpIAQskz8FtSrQkfgXx-6">
          <mxGeometry x="45" y="163" width="10" height="37" as="geometry" />
        </mxCell>
        <mxCell id="TtpIAQskz8FtSrQkfgXx-9" value="" style="endArrow=classic;html=1;rounded=0;" edge="1" parent="TtpIAQskz8FtSrQkfgXx-6" target="TtpIAQskz8FtSrQkfgXx-15">
          <mxGeometry width="50" height="50" relative="1" as="geometry">
            <mxPoint x="55" y="163" as="sourcePoint" />
            <mxPoint x="168" y="163" as="targetPoint" />
            <Array as="points" />
          </mxGeometry>
        </mxCell>
        <mxCell id="TtpIAQskz8FtSrQkfgXx-10" value="ICX" style="shape=umlLifeline;perimeter=lifelinePerimeter;container=1;collapsible=0;recursiveResize=0;rounded=0;shadow=0;strokeWidth=1;fontSize=14;fillColor=#FFCC99;strokeColor=#666666;fontColor=#333333;" vertex="1" parent="1">
          <mxGeometry x="451" y="720" width="109" height="200" as="geometry" />
        </mxCell>
        <mxCell id="TtpIAQskz8FtSrQkfgXx-11" value="" style="points=[];perimeter=orthogonalPerimeter;rounded=0;shadow=0;strokeWidth=1;fontSize=14;fillColor=#f5f5f5;strokeColor=#666666;fontColor=#333333;" vertex="1" parent="TtpIAQskz8FtSrQkfgXx-10">
          <mxGeometry x="-86" y="70" width="10" height="37" as="geometry" />
        </mxCell>
        <mxCell id="TtpIAQskz8FtSrQkfgXx-12" value="" style="points=[];perimeter=orthogonalPerimeter;rounded=0;shadow=0;strokeWidth=1;fontSize=14;" vertex="1" parent="TtpIAQskz8FtSrQkfgXx-10">
          <mxGeometry x="45" y="70" width="10" height="37" as="geometry" />
        </mxCell>
        <mxCell id="TtpIAQskz8FtSrQkfgXx-13" value="ICX Customer Number" style="verticalAlign=bottom;endArrow=open;dashed=1;endSize=8;shadow=0;strokeWidth=1;fontSize=12;exitX=-0.11;exitY=0.887;exitDx=0;exitDy=0;exitPerimeter=0;" edge="1" parent="TtpIAQskz8FtSrQkfgXx-10" source="TtpIAQskz8FtSrQkfgXx-12" target="TtpIAQskz8FtSrQkfgXx-11">
          <mxGeometry x="-0.0842" y="27" relative="1" as="geometry">
            <mxPoint x="-126" y="107" as="targetPoint" />
            <mxPoint x="124" y="107" as="sourcePoint" />
            <mxPoint x="-1" as="offset" />
          </mxGeometry>
        </mxCell>
        <mxCell id="TtpIAQskz8FtSrQkfgXx-14" value="&lt;font style=&quot;font-size: 12px;&quot;&gt;ICX Customer Number&lt;/font&gt;" style="rounded=0;whiteSpace=wrap;html=1;fillColor=#FFFFFF;strokeColor=#FFFFFF;" vertex="1" parent="TtpIAQskz8FtSrQkfgXx-10">
          <mxGeometry x="-11.75" y="140" width="123.5" height="20" as="geometry" />
        </mxCell>
        <mxCell id="TtpIAQskz8FtSrQkfgXx-15" value="SFDC" style="shape=umlLifeline;perimeter=lifelinePerimeter;container=1;collapsible=0;recursiveResize=0;rounded=0;shadow=0;strokeWidth=1;fontSize=14;fillColor=#D4E1F5;strokeColor=#6c8ebf;" vertex="1" parent="1">
          <mxGeometry x="587" y="720" width="100" height="200" as="geometry" />
        </mxCell>
        <mxCell id="TtpIAQskz8FtSrQkfgXx-16" value="" style="points=[];perimeter=orthogonalPerimeter;rounded=0;shadow=0;strokeWidth=1;fontSize=14;" vertex="1" parent="TtpIAQskz8FtSrQkfgXx-15">
          <mxGeometry x="45" y="163" width="10" height="37" as="geometry" />
        </mxCell>
        <mxCell id="TtpIAQskz8FtSrQkfgXx-17" value="" style="endArrow=classic;html=1;rounded=0;exitX=0.689;exitY=0.03;exitDx=0;exitDy=0;exitPerimeter=0;" edge="1" parent="1">
          <mxGeometry width="50" height="50" relative="1" as="geometry">
            <mxPoint x="247.8900000000001" y="791.1099999999999" as="sourcePoint" />
            <mxPoint x="360" y="791" as="targetPoint" />
          </mxGeometry>
        </mxCell>
        <mxCell id="TtpIAQskz8FtSrQkfgXx-18" value="TMF629" style="rounded=0;whiteSpace=wrap;html=1;" vertex="1" parent="1">
          <mxGeometry x="700" y="800" width="60" height="20" as="geometry" />
        </mxCell>
        <mxCell id="TtpIAQskz8FtSrQkfgXx-21" value="" style="group" vertex="1" connectable="0" parent="1">
          <mxGeometry x="70" y="560" width="470" height="120" as="geometry" />
        </mxCell>
        <mxCell id="TtpIAQskz8FtSrQkfgXx-2" value="&lt;h1 style=&quot;margin-top: 0px;&quot;&gt;Account Creation&lt;/h1&gt;&lt;p&gt;Account Creation for FNO ISP stream is done via partners. The process is managed thorugh WebMethods and integrates with ICX.&lt;span style=&quot;color: rgba(0, 0, 0, 0); font-family: monospace; font-size: 0px; text-wrap: nowrap; background-color: initial;&quot;&gt;%3CmxGraphModel%3E%3Croot%3E%3CmxCell%20id%3D%220%22%2F%3E%3CmxCell%20id%3D%221%22%20parent%3D%220%22%2F%3E%3CmxCell%20id%3D%222%22%20value%3D%22Partner%22%20style%3D%22shape%3DumlLifeline%3Bperimeter%3DlifelinePerimeter%3Bcontainer%3D1%3Bcollapsible%3D0%3BrecursiveResize%3D0%3Brounded%3D0%3Bshadow%3D0%3BstrokeWidth%3D1%3BfontSize%3D14%3BfillColor%3D%239AC7BF%3BstrokeColor%3D%239673a6%3B%22%20vertex%3D%221%22%20parent%3D%221%22%3E%3CmxGeometry%20x%3D%22940%22%20y%3D%22-170%22%20width%3D%22100%22%20height%3D%22200%22%20as%3D%22geometry%22%2F%3E%3C%2FmxCell%3E%3CmxCell%20id%3D%223%22%20value%3D%22%22%20style%3D%22points%3D%5B%5D%3Bperimeter%3DorthogonalPerimeter%3Brounded%3D0%3Bshadow%3D0%3BstrokeWidth%3D1%3BfontSize%3D14%3B%22%20vertex%3D%221%22%20parent%3D%222%22%3E%3CmxGeometry%20x%3D%2245%22%20y%3D%2270%22%20width%3D%2210%22%20height%3D%2237%22%20as%3D%22geometry%22%2F%3E%3C%2FmxCell%3E%3CmxCell%20id%3D%224%22%20value%3D%22WM%22%20style%3D%22shape%3DumlLifeline%3Bperimeter%3DlifelinePerimeter%3Bcontainer%3D1%3Bcollapsible%3D0%3BrecursiveResize%3D0%3Brounded%3D0%3Bshadow%3D0%3BstrokeWidth%3D1%3BfontSize%3D14%3BfillColor%3D%23FFF2CC%3BstrokeColor%3D%23d79b00%3B%22%20vertex%3D%221%22%20parent%3D%221%22%3E%3CmxGeometry%20x%3D%221070%22%20y%3D%22-170%22%20width%3D%22110%22%20height%3D%22203.67%22%20as%3D%22geometry%22%2F%3E%3C%2FmxCell%3E%3CmxCell%20id%3D%225%22%20value%3D%22%22%20style%3D%22endArrow%3Dclassic%3Bhtml%3D1%3Brounded%3D0%3B%22%20edge%3D%221%22%20parent%3D%224%22%3E%3CmxGeometry%20width%3D%2250%22%20height%3D%2250%22%20relative%3D%221%22%20as%3D%22geometry%22%3E%3CmxPoint%20x%3D%2260%22%20y%3D%2270%22%20as%3D%22sourcePoint%22%2F%3E%3CmxPoint%20x%3D%22173%22%20y%3D%2270%22%20as%3D%22targetPoint%22%2F%3E%3CArray%20as%3D%22points%22%2F%3E%3C%2FmxGeometry%3E%3C%2FmxCell%3E%3CmxCell%20id%3D%226%22%20value%3D%22%22%20style%3D%22points%3D%5B%5D%3Bperimeter%3DorthogonalPerimeter%3Brounded%3D0%3Bshadow%3D0%3BstrokeWidth%3D1%3BfontSize%3D14%3B%22%20vertex%3D%221%22%20parent%3D%224%22%3E%3CmxGeometry%20x%3D%2245%22%20y%3D%22163%22%20width%3D%2210%22%20height%3D%2237%22%20as%3D%22geometry%22%2F%3E%3C%2FmxCell%3E%3CmxCell%20id%3D%227%22%20value%3D%22%22%20style%3D%22endArrow%3Dclassic%3Bhtml%3D1%3Brounded%3D0%3B%22%20edge%3D%221%22%20parent%3D%224%22%20target%3D%2213%22%3E%3CmxGeometry%20width%3D%2250%22%20height%3D%2250%22%20relative%3D%221%22%20as%3D%22geometry%22%3E%3CmxPoint%20x%3D%2255%22%20y%3D%22163%22%20as%3D%22sourcePoint%22%2F%3E%3CmxPoint%20x%3D%22168%22%20y%3D%22163%22%20as%3D%22targetPoint%22%2F%3E%3CArray%20as%3D%22points%22%2F%3E%3C%2FmxGeometry%3E%3C%2FmxCell%3E%3CmxCell%20id%3D%228%22%20value%3D%22ICX%22%20style%3D%22shape%3DumlLifeline%3Bperimeter%3DlifelinePerimeter%3Bcontainer%3D1%3Bcollapsible%3D0%3BrecursiveResize%3D0%3Brounded%3D0%3Bshadow%3D0%3BstrokeWidth%3D1%3BfontSize%3D14%3BfillColor%3D%23FFCC99%3BstrokeColor%3D%23666666%3BfontColor%3D%23333333%3B%22%20vertex%3D%221%22%20parent%3D%221%22%3E%3CmxGeometry%20x%3D%221201%22%20y%3D%22-170%22%20width%3D%22109%22%20height%3D%22200%22%20as%3D%22geometry%22%2F%3E%3C%2FmxCell%3E%3CmxCell%20id%3D%229%22%20value%3D%22%22%20style%3D%22points%3D%5B%5D%3Bperimeter%3DorthogonalPerimeter%3Brounded%3D0%3Bshadow%3D0%3BstrokeWidth%3D1%3BfontSize%3D14%3BfillColor%3D%23f5f5f5%3BstrokeColor%3D%23666666%3BfontColor%3D%23333333%3B%22%20vertex%3D%221%22%20parent%3D%228%22%3E%3CmxGeometry%20x%3D%22-86%22%20y%3D%2270%22%20width%3D%2210%22%20height%3D%2237%22%20as%3D%22geometry%22%2F%3E%3C%2FmxCell%3E%3CmxCell%20id%3D%2210%22%20value%3D%22%22%20style%3D%22points%3D%5B%5D%3Bperimeter%3DorthogonalPerimeter%3Brounded%3D0%3Bshadow%3D0%3BstrokeWidth%3D1%3BfontSize%3D14%3B%22%20vertex%3D%221%22%20parent%3D%228%22%3E%3CmxGeometry%20x%3D%2245%22%20y%3D%2270%22%20width%3D%2210%22%20height%3D%2237%22%20as%3D%22geometry%22%2F%3E%3C%2FmxCell%3E%3CmxCell%20id%3D%2211%22%20value%3D%22ICX%20Customer%20Number%22%20style%3D%22verticalAlign%3Dbottom%3BendArrow%3Dopen%3Bdashed%3D1%3BendSize%3D8%3Bshadow%3D0%3BstrokeWidth%3D1%3BfontSize%3D12%3BexitX%3D-0.11%3BexitY%3D0.887%3BexitDx%3D0%3BexitDy%3D0%3BexitPerimeter%3D0%3B%22%20edge%3D%221%22%20parent%3D%228%22%20source%3D%2210%22%20target%3D%229%22%3E%3CmxGeometry%20x%3D%22-0.0842%22%20y%3D%2227%22%20relative%3D%221%22%20as%3D%22geometry%22%3E%3CmxPoint%20x%3D%22-126%22%20y%3D%22107%22%20as%3D%22targetPoint%22%2F%3E%3CmxPoint%20x%3D%22124%22%20y%3D%22107%22%20as%3D%22sourcePoint%22%2F%3E%3CmxPoint%20x%3D%22-1%22%20as%3D%22offset%22%2F%3E%3C%2FmxGeometry%3E%3C%2FmxCell%3E%3CmxCell%20id%3D%2212%22%20value%3D%22%26lt%3Bfont%20style%3D%26quot%3Bfont-size%3A%2012px%3B%26quot%3B%26gt%3BICX%20Customer%20Number%26lt%3B%2Ffont%26gt%3B%22%20style%3D%22rounded%3D0%3BwhiteSpace%3Dwrap%3Bhtml%3D1%3BfillColor%3D%23FFFFFF%3BstrokeColor%3D%23FFFFFF%3B%22%20vertex%3D%221%22%20parent%3D%228%22%3E%3CmxGeometry%20x%3D%22-11.75%22%20y%3D%22140%22%20width%3D%22123.5%22%20height%3D%2220%22%20as%3D%22geometry%22%2F%3E%3C%2FmxCell%3E%3CmxCell%20id%3D%2213%22%20value%3D%22SFDC%22%20style%3D%22shape%3DumlLifeline%3Bperimeter%3DlifelinePerimeter%3Bcontainer%3D1%3Bcollapsible%3D0%3BrecursiveResize%3D0%3Brounded%3D0%3Bshadow%3D0%3BstrokeWidth%3D1%3BfontSize%3D14%3BfillColor%3D%23D4E1F5%3BstrokeColor%3D%236c8ebf%3B%22%20vertex%3D%221%22%20parent%3D%221%22%3E%3CmxGeometry%20x%3D%221337%22%20y%3D%22-170%22%20width%3D%22100%22%20height%3D%22200%22%20as%3D%22geometry%22%2F%3E%3C%2FmxCell%3E%3CmxCell%20id%3D%2214%22%20value%3D%22%22%20style%3D%22points%3D%5B%5D%3Bperimeter%3DorthogonalPerimeter%3Brounded%3D0%3Bshadow%3D0%3BstrokeWidth%3D1%3BfontSize%3D14%3B%22%20vertex%3D%221%22%20parent%3D%2213%22%3E%3CmxGeometry%20x%3D%2245%22%20y%3D%22163%22%20width%3D%2210%22%20height%3D%2237%22%20as%3D%22geometry%22%2F%3E%3C%2FmxCell%3E%3CmxCell%20id%3D%2215%22%20value%3D%22%22%20style%3D%22endArrow%3Dclassic%3Bhtml%3D1%3Brounded%3D0%3BexitX%3D0.689%3BexitY%3D0.03%3BexitDx%3D0%3BexitDy%3D0%3BexitPerimeter%3D0%3B%22%20edge%3D%221%22%20parent%3D%221%22%3E%3CmxGeometry%20width%3D%2250%22%20height%3D%2250%22%20relative%3D%221%22%20as%3D%22geometry%22%3E%3CmxPoint%20x%3D%22997.8900000000001%22%20y%3D%22-98.89000000000009%22%20as%3D%22sourcePoint%22%2F%3E%3CmxPoint%20x%3D%221110%22%20y%3D%22-98.99999999999999%22%20as%3D%22targetPoint%22%2F%3E%3C%2FmxGeometry%3E%3C%2FmxCell%3E%3CmxCell%20id%3D%2216%22%20value%3D%22TMF629%22%20style%3D%22rounded%3D0%3BwhiteSpace%3Dwrap%3Bhtml%3D1%3B%22%20vertex%3D%221%22%20parent%3D%221%22%3E%3CmxGeometry%20x%3D%221450%22%20y%3D%22-89.99999999999999%22%20width%3D%2260%22%20height%3D%2220%22%20as%3D%22geometry%22%2F%3E%3C%2FmxCell%3E%3C%2Froot%3E%3C%2FmxGraphModel%3E&lt;/span&gt;&lt;/p&gt;" style="text;html=1;whiteSpace=wrap;overflow=hidden;rounded=0;" vertex="1" parent="TtpIAQskz8FtSrQkfgXx-21">
          <mxGeometry x="70" width="400" height="120" as="geometry" />
        </mxCell>
        <mxCell id="TtpIAQskz8FtSrQkfgXx-3" value="&lt;b&gt;&lt;font style=&quot;font-size: 16px;&quot;&gt;1&lt;/font&gt;&lt;/b&gt;" style="shape=hexagon;perimeter=hexagonPerimeter2;whiteSpace=wrap;html=1;fixedSize=1;size=10;fillColor=#b0e3e6;strokeColor=#0e8088;" vertex="1" parent="TtpIAQskz8FtSrQkfgXx-21">
          <mxGeometry width="40" height="30" as="geometry" />
        </mxCell>
        <mxCell id="TtpIAQskz8FtSrQkfgXx-22" value="" style="group" vertex="1" connectable="0" parent="1">
          <mxGeometry x="70" y="1030" width="640" height="160" as="geometry" />
        </mxCell>
        <mxCell id="TtpIAQskz8FtSrQkfgXx-23" value="&lt;h1 style=&quot;margin-top: 0px;&quot;&gt;Vlocity Order Provisioning for New Purchase&lt;/h1&gt;&lt;h1 style=&quot;margin-top: 0px;&quot;&gt;&lt;span style=&quot;background-color: initial; font-weight: normal; font-size: 12px;&quot;&gt;Order provisiong process is done via integrated vlocity orchestration framework described bellow.&lt;/span&gt;&lt;/h1&gt;&lt;div&gt;The process is currently integrated with ICX.&lt;/div&gt;&lt;h1 style=&quot;margin-top: 0px;&quot;&gt;&lt;span style=&quot;background-color: initial; font-weight: normal; text-wrap: nowrap; color: rgba(0, 0, 0, 0); font-family: monospace; font-size: 0px;&quot;&gt;Tasd%3CmxGraphModel%3E%3Croot%3E%3CmxCell%20id%3D%220%22%2F%3E%3CmxCell%20id%3D%221%22%20parent%3D%220%22%2F%3E%3CmxCell%20id%3D%222%22%20value%3D%22Partner%22%20style%3D%22shape%3DumlLifeline%3Bperimeter%3DlifelinePerimeter%3Bcontainer%3D1%3Bcollapsible%3D0%3BrecursiveResize%3D0%3Brounded%3D0%3Bshadow%3D0%3BstrokeWidth%3D1%3BfontSize%3D14%3BfillColor%3D%239AC7BF%3BstrokeColor%3D%239673a6%3B%22%20vertex%3D%221%22%20parent%3D%221%22%3E%3CmxGeometry%20x%3D%22940%22%20y%3D%22-170%22%20width%3D%22100%22%20height%3D%22200%22%20as%3D%22geometry%22%2F%3E%3C%2FmxCell%3E%3CmxCell%20id%3D%223%22%20value%3D%22%22%20style%3D%22points%3D%5B%5D%3Bperimeter%3DorthogonalPerimeter%3Brounded%3D0%3Bshadow%3D0%3BstrokeWidth%3D1%3BfontSize%3D14%3B%22%20vertex%3D%221%22%20parent%3D%222%22%3E%3CmxGeometry%20x%3D%2245%22%20y%3D%2270%22%20width%3D%2210%22%20height%3D%2237%22%20as%3D%22geometry%22%2F%3E%3C%2FmxCell%3E%3CmxCell%20id%3D%224%22%20value%3D%22WM%22%20style%3D%22shape%3DumlLifeline%3Bperimeter%3DlifelinePerimeter%3Bcontainer%3D1%3Bcollapsible%3D0%3BrecursiveResize%3D0%3Brounded%3D0%3Bshadow%3D0%3BstrokeWidth%3D1%3BfontSize%3D14%3BfillColor%3D%23FFF2CC%3BstrokeColor%3D%23d79b00%3B%22%20vertex%3D%221%22%20parent%3D%221%22%3E%3CmxGeometry%20x%3D%221070%22%20y%3D%22-170%22%20width%3D%22110%22%20height%3D%22203.67%22%20as%3D%22geometry%22%2F%3E%3C%2FmxCell%3E%3CmxCell%20id%3D%225%22%20value%3D%22%22%20style%3D%22endArrow%3Dclassic%3Bhtml%3D1%3Brounded%3D0%3B%22%20edge%3D%221%22%20parent%3D%224%22%3E%3CmxGeometry%20width%3D%2250%22%20height%3D%2250%22%20relative%3D%221%22%20as%3D%22geometry%22%3E%3CmxPoint%20x%3D%2260%22%20y%3D%2270%22%20as%3D%22sourcePoint%22%2F%3E%3CmxPoint%20x%3D%22173%22%20y%3D%2270%22%20as%3D%22targetPoint%22%2F%3E%3CArray%20as%3D%22points%22%2F%3E%3C%2FmxGeometry%3E%3C%2FmxCell%3E%3CmxCell%20id%3D%226%22%20value%3D%22%22%20style%3D%22points%3D%5B%5D%3Bperimeter%3DorthogonalPerimeter%3Brounded%3D0%3Bshadow%3D0%3BstrokeWidth%3D1%3BfontSize%3D14%3B%22%20vertex%3D%221%22%20parent%3D%224%22%3E%3CmxGeometry%20x%3D%2245%22%20y%3D%22163%22%20width%3D%2210%22%20height%3D%2237%22%20as%3D%22geometry%22%2F%3E%3C%2FmxCell%3E%3CmxCell%20id%3D%227%22%20value%3D%22%22%20style%3D%22endArrow%3Dclassic%3Bhtml%3D1%3Brounded%3D0%3B%22%20edge%3D%221%22%20parent%3D%224%22%20target%3D%2213%22%3E%3CmxGeometry%20width%3D%2250%22%20height%3D%2250%22%20relative%3D%221%22%20as%3D%22geometry%22%3E%3CmxPoint%20x%3D%2255%22%20y%3D%22163%22%20as%3D%22sourcePoint%22%2F%3E%3CmxPoint%20x%3D%22168%22%20y%3D%22163%22%20as%3D%22targetPoint%22%2F%3E%3CArray%20as%3D%22points%22%2F%3E%3C%2FmxGeometry%3E%3C%2FmxCell%3E%3CmxCell%20id%3D%228%22%20value%3D%22ICX%22%20style%3D%22shape%3DumlLifeline%3Bperimeter%3DlifelinePerimeter%3Bcontainer%3D1%3Bcollapsible%3D0%3BrecursiveResize%3D0%3Brounded%3D0%3Bshadow%3D0%3BstrokeWidth%3D1%3BfontSize%3D14%3BfillColor%3D%23FFCC99%3BstrokeColor%3D%23666666%3BfontColor%3D%23333333%3B%22%20vertex%3D%221%22%20parent%3D%221%22%3E%3CmxGeometry%20x%3D%221201%22%20y%3D%22-170%22%20width%3D%22109%22%20height%3D%22200%22%20as%3D%22geometry%22%2F%3E%3C%2FmxCell%3E%3CmxCell%20id%3D%229%22%20value%3D%22%22%20style%3D%22points%3D%5B%5D%3Bperimeter%3DorthogonalPerimeter%3Brounded%3D0%3Bshadow%3D0%3BstrokeWidth%3D1%3BfontSize%3D14%3BfillColor%3D%23f5f5f5%3BstrokeColor%3D%23666666%3BfontColor%3D%23333333%3B%22%20vertex%3D%221%22%20parent%3D%228%22%3E%3CmxGeometry%20x%3D%22-86%22%20y%3D%2270%22%20width%3D%2210%22%20height%3D%2237%22%20as%3D%22geometry%22%2F%3E%3C%2FmxCell%3E%3CmxCell%20id%3D%2210%22%20value%3D%22%22%20style%3D%22points%3D%5B%5D%3Bperimeter%3DorthogonalPerimeter%3Brounded%3D0%3Bshadow%3D0%3BstrokeWidth%3D1%3BfontSize%3D14%3B%22%20vertex%3D%221%22%20parent%3D%228%22%3E%3CmxGeometry%20x%3D%2245%22%20y%3D%2270%22%20width%3D%2210%22%20height%3D%2237%22%20as%3D%22geometry%22%2F%3E%3C%2FmxCell%3E%3CmxCell%20id%3D%2211%22%20value%3D%22ICX%20Customer%20Number%22%20style%3D%22verticalAlign%3Dbottom%3BendArrow%3Dopen%3Bdashed%3D1%3BendSize%3D8%3Bshadow%3D0%3BstrokeWidth%3D1%3BfontSize%3D12%3BexitX%3D-0.11%3BexitY%3D0.887%3BexitDx%3D0%3BexitDy%3D0%3BexitPerimeter%3D0%3B%22%20edge%3D%221%22%20parent%3D%228%22%20source%3D%2210%22%20target%3D%229%22%3E%3CmxGeometry%20x%3D%22-0.0842%22%20y%3D%2227%22%20relative%3D%221%22%20as%3D%22geometry%22%3E%3CmxPoint%20x%3D%22-126%22%20y%3D%22107%22%20as%3D%22targetPoint%22%2F%3E%3CmxPoint%20x%3D%22124%22%20y%3D%22107%22%20as%3D%22sourcePoint%22%2F%3E%3CmxPoint%20x%3D%22-1%22%20as%3D%22offset%22%2F%3E%3C%2FmxGeometry%3E%3C%2FmxCell%3E%3CmxCell%20id%3D%2212%22%20value%3D%22%26lt%3Bfont%20style%3D%26quot%3Bfont-size%3A%2012px%3B%26quot%3B%26gt%3BICX%20Customer%20Number%26lt%3B%2Ffont%26gt%3B%22%20style%3D%22rounded%3D0%3BwhiteSpace%3Dwrap%3Bhtml%3D1%3BfillColor%3D%23FFFFFF%3BstrokeColor%3D%23FFFFFF%3B%22%20vertex%3D%221%22%20parent%3D%228%22%3E%3CmxGeometry%20x%3D%22-11.75%22%20y%3D%22140%22%20width%3D%22123.5%22%20height%3D%2220%22%20as%3D%22geometry%22%2F%3E%3C%2FmxCell%3E%3CmxCell%20id%3D%2213%22%20value%3D%22SFDC%22%20style%3D%22shape%3DumlLifeline%3Bperimeter%3DlifelinePerimeter%3Bcontainer%3D1%3Bcollapsible%3D0%3BrecursiveResize%3D0%3Brounded%3D0%3Bshadow%3D0%3BstrokeWidth%3D1%3BfontSize%3D14%3BfillColor%3D%23D4E1F5%3BstrokeColor%3D%236c8ebf%3B%22%20vertex%3D%221%22%20parent%3D%221%22%3E%3CmxGeometry%20x%3D%221337%22%20y%3D%22-170%22%20width%3D%22100%22%20height%3D%22200%22%20as%3D%22geometry%22%2F%3E%3C%2FmxCell%3E%3CmxCell%20id%3D%2214%22%20value%3D%22%22%20style%3D%22points%3D%5B%5D%3Bperimeter%3DorthogonalPerimeter%3Brounded%3D0%3Bshadow%3D0%3BstrokeWidth%3D1%3BfontSize%3D14%3B%22%20vertex%3D%221%22%20parent%3D%2213%22%3E%3CmxGeometry%20x%3D%2245%22%20y%3D%22163%22%20width%3D%2210%22%20height%3D%2237%22%20as%3D%22geometry%22%2F%3E%3C%2FmxCell%3E%3CmxCell%20id%3D%2215%22%20value%3D%22%22%20style%3D%22endArrow%3Dclassic%3Bhtml%3D1%3Brounded%3D0%3BexitX%3D0.689%3BexitY%3D0.03%3BexitDx%3D0%3BexitDy%3D0%3BexitPerimeter%3D0%3B%22%20edge%3D%221%22%20parent%3D%221%22%3E%3CmxGeometry%20width%3D%2250%22%20height%3D%2250%22%20relative%3D%221%22%20as%3D%22geometry%22%3E%3CmxPoint%20x%3D%22997.8900000000001%22%20y%3D%22-98.89000000000009%22%20as%3D%22sourcePoint%22%2F%3E%3CmxPoint%20x%3D%221110%22%20y%3D%22-98.99999999999999%22%20as%3D%22targetPoint%22%2F%3E%3C%2FmxGeometry%3E%3C%2FmxCell%3E%3CmxCell%20id%3D%2216%22%20value%3D%22TMF629%22%20style%3D%22rounded%3D0%3BwhiteSpace%3Dwrap%3Bhtml%3D1%3B%22%20vertex%3D%221%22%20parent%3D%221%22%3E%3CmxGeometry%20x%3D%221450%22%20y%3D%22-89.99999999999999%22%20width%3D%2260%22%20height%3D%2220%22%20as%3D%22geometry%22%2F%3E%3C%2FmxCell%3E%3C%2Froot%3E%3C%2FmxGraphModel%3E&lt;/span&gt;&lt;br&gt;&lt;/h1&gt;" style="text;html=1;whiteSpace=wrap;overflow=hidden;rounded=0;" vertex="1" parent="TtpIAQskz8FtSrQkfgXx-22">
          <mxGeometry x="70" width="570" height="160" as="geometry" />
        </mxCell>
        <mxCell id="TtpIAQskz8FtSrQkfgXx-24" value="&lt;b&gt;&lt;font style=&quot;font-size: 16px;&quot;&gt;2&lt;/font&gt;&lt;/b&gt;" style="shape=hexagon;perimeter=hexagonPerimeter2;whiteSpace=wrap;html=1;fixedSize=1;size=10;fillColor=#b0e3e6;strokeColor=#0e8088;" vertex="1" parent="TtpIAQskz8FtSrQkfgXx-22">
          <mxGeometry width="40" height="30" as="geometry" />
        </mxCell>
        <mxCell id="TtpIAQskz8FtSrQkfgXx-25" value="&lt;b&gt;LIVE&lt;/b&gt;&lt;div&gt;&lt;b&gt;(Salesforce Production)&lt;/b&gt;&lt;/div&gt;" style="rounded=1;whiteSpace=wrap;html=1;fillColor=#d5e8d4;strokeColor=#82b366;fillOpacity=50;rotation=0;" vertex="1" parent="1">
          <mxGeometry x="610" y="560" width="173" height="40" as="geometry" />
        </mxCell>
        <mxCell id="TtpIAQskz8FtSrQkfgXx-26" value="&lt;b&gt;LIVE&lt;/b&gt;&lt;div&gt;&lt;b&gt;(Salesforce Production)&lt;/b&gt;&lt;/div&gt;" style="rounded=1;whiteSpace=wrap;html=1;fillColor=#d5e8d4;strokeColor=#82b366;fillOpacity=50;rotation=0;" vertex="1" parent="1">
          <mxGeometry x="750" y="1030" width="173" height="40" as="geometry" />
        </mxCell>
        <mxCell id="TtpIAQskz8FtSrQkfgXx-28" value="CV (RTVAS)" style="swimlane;horizontal=0;fillColor=#f5f5f5;strokeColor=#666666;fontColor=#333333;" vertex="1" parent="1">
          <mxGeometry x="140" y="1979" width="820" height="100" as="geometry" />
        </mxCell>
        <mxCell id="TtpIAQskz8FtSrQkfgXx-29" value="Vlocity" style="swimlane;horizontal=0;container=0;" vertex="1" parent="TtpIAQskz8FtSrQkfgXx-28">
          <mxGeometry y="-100" width="820" height="100" as="geometry" />
        </mxCell>
        <mxCell id="TtpIAQskz8FtSrQkfgXx-41" value="Milestones" style="swimlane;horizontal=0;fontSize=13;align=right;" vertex="1" parent="1">
          <mxGeometry x="140" y="1380" width="820" height="400" as="geometry">
            <mxRectangle x="40" y="40" width="30" height="90" as="alternateBounds" />
          </mxGeometry>
        </mxCell>
        <mxCell id="TtpIAQskz8FtSrQkfgXx-42" value="Start Order &lt;br&gt;Activation" style="rounded=1;whiteSpace=wrap;html=1;fillColor=#dae8fc;strokeColor=#6c8ebf;" vertex="1" parent="TtpIAQskz8FtSrQkfgXx-41">
          <mxGeometry x="40" y="30" width="120" height="40" as="geometry" />
        </mxCell>
        <mxCell id="TtpIAQskz8FtSrQkfgXx-43" value="End Order &lt;br&gt;Activation" style="rounded=1;whiteSpace=wrap;html=1;fillColor=#dae8fc;strokeColor=#6c8ebf;" vertex="1" parent="TtpIAQskz8FtSrQkfgXx-41">
          <mxGeometry x="670" y="25" width="120" height="40" as="geometry" />
        </mxCell>
        <mxCell id="TtpIAQskz8FtSrQkfgXx-44" value="&lt;div&gt;First Activation of both DVS and Showmax products&amp;nbsp;&lt;/div&gt;&lt;div&gt;don&#39;t go to Activation Engine&lt;/div&gt;" style="text;html=1;resizable=0;autosize=1;align=left;verticalAlign=middle;points=[];fillColor=none;strokeColor=none;rounded=0;fontSize=10;" vertex="1" parent="TtpIAQskz8FtSrQkfgXx-41">
          <mxGeometry x="190" y="35" width="250" height="30" as="geometry" />
        </mxCell>
        <mxCell id="TtpIAQskz8FtSrQkfgXx-45" value="ICX" style="swimlane;horizontal=0;fontSize=13;align=right;" vertex="1" parent="TtpIAQskz8FtSrQkfgXx-41">
          <mxGeometry y="100" width="820" height="300" as="geometry">
            <mxRectangle x="40" y="40" width="30" height="90" as="alternateBounds" />
          </mxGeometry>
        </mxCell>
        <mxCell id="TtpIAQskz8FtSrQkfgXx-46" style="edgeStyle=orthogonalEdgeStyle;rounded=0;orthogonalLoop=1;jettySize=auto;html=1;exitX=0.5;exitY=1;exitDx=0;exitDy=0;entryX=0.5;entryY=0;entryDx=0;entryDy=0;" edge="1" parent="TtpIAQskz8FtSrQkfgXx-45" source="TtpIAQskz8FtSrQkfgXx-47" target="TtpIAQskz8FtSrQkfgXx-50">
          <mxGeometry relative="1" as="geometry" />
        </mxCell>
        <mxCell id="TtpIAQskz8FtSrQkfgXx-47" value="TMF 622 Product Order" style="rounded=1;whiteSpace=wrap;html=1;fillColor=#ffe6cc;strokeColor=#d79b00;" vertex="1" parent="TtpIAQskz8FtSrQkfgXx-45">
          <mxGeometry x="40" y="30" width="120" height="40" as="geometry" />
        </mxCell>
        <mxCell id="TtpIAQskz8FtSrQkfgXx-48" value="Get from ICX AgreementId&lt;br&gt;and AgreementDetail Id&lt;br&gt;" style="text;html=1;align=left;verticalAlign=middle;resizable=0;points=[];autosize=1;strokeColor=none;fillColor=none;" vertex="1" parent="TtpIAQskz8FtSrQkfgXx-45">
          <mxGeometry x="190" y="35" width="160" height="30" as="geometry" />
        </mxCell>
        <mxCell id="TtpIAQskz8FtSrQkfgXx-49" value="Payment" style="swimlane;horizontal=0;fontSize=13;align=right;" vertex="1" parent="TtpIAQskz8FtSrQkfgXx-45">
          <mxGeometry y="100" width="820" height="200" as="geometry">
            <mxRectangle x="40" y="40" width="30" height="90" as="alternateBounds" />
          </mxGeometry>
        </mxCell>
        <mxCell id="TtpIAQskz8FtSrQkfgXx-50" value="Payment Processor" style="rounded=1;whiteSpace=wrap;html=1;fillColor=#ffe6cc;strokeColor=#d79b00;" vertex="1" parent="TtpIAQskz8FtSrQkfgXx-49">
          <mxGeometry x="40" y="30" width="120" height="40" as="geometry" />
        </mxCell>
        <mxCell id="TtpIAQskz8FtSrQkfgXx-51" value="Call used to manage the payment&amp;nbsp;" style="text;html=1;align=left;verticalAlign=middle;resizable=0;points=[];autosize=1;strokeColor=none;fillColor=none;" vertex="1" parent="TtpIAQskz8FtSrQkfgXx-49">
          <mxGeometry x="190" y="35" width="210" height="30" as="geometry" />
        </mxCell>
        <mxCell id="TtpIAQskz8FtSrQkfgXx-52" style="edgeStyle=orthogonalEdgeStyle;rounded=0;orthogonalLoop=1;jettySize=auto;html=1;exitX=0.25;exitY=1;exitDx=0;exitDy=0;entryX=0.25;entryY=0;entryDx=0;entryDy=0;" edge="1" parent="TtpIAQskz8FtSrQkfgXx-41" source="TtpIAQskz8FtSrQkfgXx-42" target="TtpIAQskz8FtSrQkfgXx-47">
          <mxGeometry relative="1" as="geometry">
            <mxPoint x="100" y="350" as="targetPoint" />
            <mxPoint x="100" y="170" as="sourcePoint" />
          </mxGeometry>
        </mxCell>
        <mxCell id="TtpIAQskz8FtSrQkfgXx-53" value="FNO/ISP" style="swimlane;horizontal=0;fontSize=13;" vertex="1" parent="1">
          <mxGeometry x="140" y="2080" width="820" height="100" as="geometry">
            <mxRectangle x="40" y="40" width="30" height="90" as="alternateBounds" />
          </mxGeometry>
        </mxCell>
        <mxCell id="TtpIAQskz8FtSrQkfgXx-54" value="Notify FNO/ISP of Order Completion" style="rounded=1;whiteSpace=wrap;html=1;fillColor=#ffe6cc;strokeColor=#d79b00;" vertex="1" parent="TtpIAQskz8FtSrQkfgXx-53">
          <mxGeometry x="126" y="20" width="120" height="40" as="geometry" />
        </mxCell>
        <mxCell id="TtpIAQskz8FtSrQkfgXx-55" value="&lt;h1 style=&quot;margin-top: 0px;&quot;&gt;&lt;font style=&quot;font-size: 12px; font-weight: normal;&quot;&gt;Only for MWEB&lt;/font&gt;&lt;/h1&gt;" style="text;html=1;whiteSpace=wrap;overflow=hidden;rounded=0;" vertex="1" parent="TtpIAQskz8FtSrQkfgXx-53">
          <mxGeometry x="185" y="57.5" width="160" height="30" as="geometry" />
        </mxCell>
        <mxCell id="TtpIAQskz8FtSrQkfgXx-56" style="edgeStyle=orthogonalEdgeStyle;rounded=0;orthogonalLoop=1;jettySize=auto;html=1;entryX=0.5;entryY=0;entryDx=0;entryDy=0;" edge="1" parent="1" target="TtpIAQskz8FtSrQkfgXx-67">
          <mxGeometry relative="1" as="geometry">
            <mxPoint x="230" y="1651" as="sourcePoint" />
            <mxPoint x="300" y="1830" as="targetPoint" />
            <Array as="points">
              <mxPoint x="230" y="1831" />
              <mxPoint x="326" y="1831" />
            </Array>
          </mxGeometry>
        </mxCell>
        <mxCell id="TtpIAQskz8FtSrQkfgXx-57" value="Notif. Engine" style="swimlane;horizontal=0;" vertex="1" parent="1">
          <mxGeometry x="140" y="2180" width="820" height="100" as="geometry" />
        </mxCell>
        <mxCell id="TtpIAQskz8FtSrQkfgXx-58" value="Send DvS &lt;br&gt;activation Email" style="rounded=1;whiteSpace=wrap;html=1;fillColor=#ffe6cc;strokeColor=#d79b00;sketch=0;" vertex="1" parent="TtpIAQskz8FtSrQkfgXx-57">
          <mxGeometry x="126" y="30" width="120" height="40" as="geometry" />
        </mxCell>
        <mxCell id="TtpIAQskz8FtSrQkfgXx-59" value="&lt;span style=&quot;font-size: 10px ; text-align: left&quot;&gt;This email contains a link &lt;br&gt;plus the ICX customer ID&lt;/span&gt;" style="text;html=1;align=center;verticalAlign=middle;resizable=0;points=[];autosize=1;strokeColor=none;fillColor=none;" vertex="1" parent="TtpIAQskz8FtSrQkfgXx-57">
          <mxGeometry x="126" y="70" width="130" height="30" as="geometry" />
        </mxCell>
        <mxCell id="TtpIAQskz8FtSrQkfgXx-60" style="edgeStyle=orthogonalEdgeStyle;rounded=0;orthogonalLoop=1;jettySize=auto;html=1;exitX=0.5;exitY=1;exitDx=0;exitDy=0;entryX=0.5;entryY=0;entryDx=0;entryDy=0;" edge="1" parent="1" source="TtpIAQskz8FtSrQkfgXx-65" target="TtpIAQskz8FtSrQkfgXx-54">
          <mxGeometry relative="1" as="geometry" />
        </mxCell>
        <mxCell id="TtpIAQskz8FtSrQkfgXx-61" style="edgeStyle=orthogonalEdgeStyle;rounded=0;orthogonalLoop=1;jettySize=auto;html=1;exitX=0.5;exitY=1;exitDx=0;exitDy=0;entryX=0.5;entryY=0;entryDx=0;entryDy=0;" edge="1" parent="1" source="TtpIAQskz8FtSrQkfgXx-54" target="TtpIAQskz8FtSrQkfgXx-58">
          <mxGeometry relative="1" as="geometry" />
        </mxCell>
        <mxCell id="TtpIAQskz8FtSrQkfgXx-62" style="edgeStyle=orthogonalEdgeStyle;rounded=0;orthogonalLoop=1;jettySize=auto;html=1;entryX=0.5;entryY=1;entryDx=0;entryDy=0;exitX=1;exitY=0.5;exitDx=0;exitDy=0;" edge="1" parent="1" source="TtpIAQskz8FtSrQkfgXx-58" target="TtpIAQskz8FtSrQkfgXx-43">
          <mxGeometry relative="1" as="geometry">
            <mxPoint x="570" y="2230" as="sourcePoint" />
          </mxGeometry>
        </mxCell>
        <mxCell id="TtpIAQskz8FtSrQkfgXx-63" value="Connected Video" style="swimlane;horizontal=0;container=0;" vertex="1" parent="1">
          <mxGeometry x="140" y="1779" width="820" height="101" as="geometry" />
        </mxCell>
        <mxCell id="TtpIAQskz8FtSrQkfgXx-64" value="&lt;span style=&quot;font-size: 10px&quot;&gt;Attributes: &lt;br&gt;- ICX Customer Number&lt;br&gt;- ICX AgreementId&lt;br&gt;&lt;/span&gt;" style="text;html=1;align=left;verticalAlign=middle;resizable=0;points=[];autosize=1;strokeColor=none;fillColor=none;" vertex="1" parent="TtpIAQskz8FtSrQkfgXx-63">
          <mxGeometry x="260" y="30" width="120" height="50" as="geometry" />
        </mxCell>
        <mxCell id="TtpIAQskz8FtSrQkfgXx-65" value="Assetize" style="rounded=1;whiteSpace=wrap;html=1;fillColor=#d5e8d4;strokeColor=#82b366;" vertex="1" parent="TtpIAQskz8FtSrQkfgXx-63">
          <mxGeometry x="126" y="140" width="120" height="40" as="geometry" />
        </mxCell>
        <mxCell id="TtpIAQskz8FtSrQkfgXx-66" style="edgeStyle=orthogonalEdgeStyle;rounded=0;orthogonalLoop=1;jettySize=auto;html=1;exitX=0.5;exitY=1;exitDx=0;exitDy=0;entryX=0.5;entryY=0;entryDx=0;entryDy=0;" edge="1" parent="TtpIAQskz8FtSrQkfgXx-63" source="TtpIAQskz8FtSrQkfgXx-67" target="TtpIAQskz8FtSrQkfgXx-65">
          <mxGeometry relative="1" as="geometry">
            <mxPoint x="81" y="-146" as="sourcePoint" />
          </mxGeometry>
        </mxCell>
        <mxCell id="TtpIAQskz8FtSrQkfgXx-67" value="Retrieve activation URL" style="rounded=1;whiteSpace=wrap;html=1;fillColor=#ffe6cc;strokeColor=#d79b00;" vertex="1" parent="TtpIAQskz8FtSrQkfgXx-63">
          <mxGeometry x="126" y="40" width="120" height="40" as="geometry" />
        </mxCell>
        <mxCell id="TtpIAQskz8FtSrQkfgXx-68" style="edgeStyle=orthogonalEdgeStyle;rounded=0;orthogonalLoop=1;jettySize=auto;html=1;exitX=1;exitY=0.5;exitDx=0;exitDy=0;entryX=0.417;entryY=0.95;entryDx=0;entryDy=0;entryPerimeter=0;" edge="1" parent="1" source="TtpIAQskz8FtSrQkfgXx-54" target="TtpIAQskz8FtSrQkfgXx-43">
          <mxGeometry relative="1" as="geometry">
            <mxPoint x="860" y="1450" as="targetPoint" />
          </mxGeometry>
        </mxCell>
        <mxCell id="TtpIAQskz8FtSrQkfgXx-69" value="Other partners (MTC; Unitel, Safaricom)" style="text;html=1;align=center;verticalAlign=middle;resizable=0;points=[];autosize=1;strokeColor=none;fillColor=none;" vertex="1" parent="1">
          <mxGeometry x="420" y="2098" width="240" height="30" as="geometry" />
        </mxCell>
        <mxCell id="TtpIAQskz8FtSrQkfgXx-70" value="" style="group" connectable="0" vertex="1" parent="1">
          <mxGeometry x="140" y="1220" width="225" height="110" as="geometry" />
        </mxCell>
        <mxCell id="TtpIAQskz8FtSrQkfgXx-71" value="" style="group" connectable="0" vertex="1" parent="TtpIAQskz8FtSrQkfgXx-70">
          <mxGeometry width="225" height="80" as="geometry" />
        </mxCell>
        <mxCell id="TtpIAQskz8FtSrQkfgXx-72" value="" style="group" connectable="0" vertex="1" parent="TtpIAQskz8FtSrQkfgXx-71">
          <mxGeometry y="30" width="225" height="50" as="geometry" />
        </mxCell>
        <mxCell id="TtpIAQskz8FtSrQkfgXx-73" value="" style="rounded=1;whiteSpace=wrap;html=1;fillColor=#ffe6cc;strokeColor=#d79b00;" vertex="1" parent="TtpIAQskz8FtSrQkfgXx-72">
          <mxGeometry width="50" height="20" as="geometry" />
        </mxCell>
        <mxCell id="TtpIAQskz8FtSrQkfgXx-74" value="Callouts To External Systems" style="text;html=1;align=center;verticalAlign=middle;resizable=0;points=[];autosize=1;strokeColor=none;" vertex="1" parent="TtpIAQskz8FtSrQkfgXx-72">
          <mxGeometry x="50" width="170" height="20" as="geometry" />
        </mxCell>
        <mxCell id="TtpIAQskz8FtSrQkfgXx-75" value="" style="rounded=1;whiteSpace=wrap;html=1;fillColor=#d5e8d4;strokeColor=#82b366;" vertex="1" parent="TtpIAQskz8FtSrQkfgXx-72">
          <mxGeometry y="30" width="50" height="20" as="geometry" />
        </mxCell>
        <mxCell id="TtpIAQskz8FtSrQkfgXx-76" value="Vlocity Internal Action" style="text;html=1;align=center;verticalAlign=middle;resizable=0;points=[];autosize=1;strokeColor=none;" vertex="1" parent="TtpIAQskz8FtSrQkfgXx-72">
          <mxGeometry x="50" y="30" width="130" height="20" as="geometry" />
        </mxCell>
        <mxCell id="TtpIAQskz8FtSrQkfgXx-77" value="&lt;b&gt;Legend&lt;/b&gt;" style="text;html=1;align=center;verticalAlign=middle;resizable=0;points=[];autosize=1;strokeColor=none;" vertex="1" parent="TtpIAQskz8FtSrQkfgXx-71">
          <mxGeometry width="60" height="20" as="geometry" />
        </mxCell>
        <mxCell id="TtpIAQskz8FtSrQkfgXx-78" value="" style="rounded=1;whiteSpace=wrap;html=1;fillColor=#dae8fc;strokeColor=#6c8ebf;" vertex="1" parent="TtpIAQskz8FtSrQkfgXx-70">
          <mxGeometry y="90" width="50" height="20" as="geometry" />
        </mxCell>
        <mxCell id="TtpIAQskz8FtSrQkfgXx-79" value="Milestones" style="text;html=1;align=left;verticalAlign=middle;resizable=0;points=[];autosize=1;strokeColor=none;" vertex="1" parent="TtpIAQskz8FtSrQkfgXx-70">
          <mxGeometry x="57.5" y="90" width="70" height="20" as="geometry" />
        </mxCell>
        <mxCell id="TtpIAQskz8FtSrQkfgXx-80" value="&lt;div style=&quot;font-size: 12px&quot; align=&quot;left&quot;&gt;&lt;font style=&quot;font-size: 12px&quot;&gt;&lt;b&gt;NOTES&lt;/b&gt;&lt;/font&gt;&lt;/div&gt;&lt;div style=&quot;font-size: 12px&quot; align=&quot;left&quot;&gt;&lt;font style=&quot;font-size: 12px&quot;&gt;&lt;br&gt;&lt;/font&gt;&lt;/div&gt;&lt;div style=&quot;font-size: 12px&quot; align=&quot;left&quot;&gt;&lt;font style=&quot;font-size: 12px&quot;&gt;1. Showmax customer lock verification is done by the DNO/ISP&lt;/font&gt;&lt;/div&gt;&lt;div style=&quot;font-size: 12px&quot; align=&quot;left&quot;&gt;&lt;span style=&quot;text-align: center&quot;&gt;before the order is submitted and the orchestration starts&lt;/span&gt;&lt;/div&gt;&lt;div style=&quot;font-size: 12px&quot; align=&quot;left&quot;&gt;&lt;span style=&quot;text-align: center&quot;&gt;&lt;br&gt;&lt;/span&gt;&lt;/div&gt;&lt;div style=&quot;font-size: 12px&quot; align=&quot;left&quot;&gt;&lt;span style=&quot;text-align: center&quot;&gt;2. If an existing customer purchases an additional DvS offer,&amp;nbsp;&lt;/span&gt;&lt;/div&gt;&lt;div style=&quot;font-size: 12px&quot; align=&quot;left&quot;&gt;&lt;span style=&quot;text-align: center&quot;&gt;the activation email should be sent for that new offer&lt;/span&gt;&lt;/div&gt;&lt;div style=&quot;font-size: 12px&quot; align=&quot;left&quot;&gt;&lt;font style=&quot;font-size: 12px&quot;&gt;&lt;br&gt;&lt;/font&gt;&lt;/div&gt;" style="text;html=1;resizable=0;autosize=1;align=center;verticalAlign=middle;points=[];fillColor=none;strokeColor=none;rounded=0;dashed=1;fontSize=10;" vertex="1" parent="1">
          <mxGeometry x="1030" y="1380" width="350" height="100" as="geometry" />
        </mxCell>
      </root>
    </mxGraphModel>
  </diagram>
  <diagram id="etOzy3VYMUsT840urfqg" name="SA Residential">
    <mxGraphModel dx="2382" dy="1225" grid="1" gridSize="10" guides="1" tooltips="1" connect="1" arrows="1" fold="1" page="1" pageScale="1" pageWidth="850" pageHeight="1100" math="0" shadow="0">
      <root>
        <mxCell id="0" />
        <mxCell id="1" parent="0" />
      </root>
    </mxGraphModel>
  </diagram>
  <diagram id="LvtuyO4tdoTl3BxF-Ei7" name="DStv for Business">
    <mxGraphModel dx="2382" dy="1225" grid="1" gridSize="10" guides="1" tooltips="1" connect="1" arrows="1" fold="1" page="1" pageScale="1" pageWidth="850" pageHeight="1100" math="0" shadow="0">
      <root>
        <mxCell id="0" />
        <mxCell id="1" parent="0" />
      </root>
    </mxGraphModel>
  </diagram>
  <diagram id="UfSFO_AQXxhWMNIQb9Ca" name="MAH Residential">
    <mxGraphModel dx="1361" dy="700" grid="1" gridSize="10" guides="1" tooltips="1" connect="1" arrows="1" fold="1" page="1" pageScale="1" pageWidth="850" pageHeight="1100" math="0" shadow="0">
      <root>
        <mxCell id="0" />
        <mxCell id="1" parent="0" />
      </root>
    </mxGraphModel>
  </diagram>
</mxfile>
